<svg width="203" height="51" viewBox="0 0 203 51" fill="none" xmlns="http://www.w3.org/2000/svg">
<g clip-path="url(#clip0_938_749)">
<path d="M94.4856 13H85.3233V38H89.3744V30.2283H94.4856C97.3073 30.2283 99.4316 29.4745 100.855 27.9669C102.277 26.4594 102.991 24.2706 102.991 21.3965C102.991 15.8015 100.157 13.004 94.4856 13.004V13ZM94.4494 26.7214H89.3744V16.5029H94.4494C95.9569 16.5029 97.0655 16.8939 97.7709 17.6719C98.4763 18.4499 98.827 19.6914 98.827 21.3925C98.827 24.9437 97.3678 26.7214 94.4494 26.7214Z" fill="white"/>
<path d="M107.022 38H122.787V34.4245H111.073V27.1245H120.598V23.6216H111.073V16.5392H122.787V13H107.022V38Z" fill="white"/>
<path d="M145.405 20.9571C145.405 15.6524 142.583 13 136.936 13H127.447V38H131.498V29.0956H137.375L140.987 38H145.441L141.317 28.1806C144.042 26.9149 145.405 24.5084 145.405 20.9531V20.9571ZM140.221 24.3351C139.54 25.1735 138.467 25.5927 137.008 25.5927H131.498V16.5069H136.936C139.806 16.5069 141.241 18.0024 141.241 20.9974C141.241 22.3841 140.898 23.4966 140.217 24.3391L140.221 24.3351Z" fill="white"/>
<path d="M154.599 13H150.548V38H154.599V13Z" fill="white"/>
<path d="M164.967 13L158.8 38H162.851L164.201 32.6348H173.799L175.149 38H179.237L173.033 13H164.967ZM165.003 29.0593L168.107 16.3941H169.933L173.001 29.0593H165.007H165.003Z" fill="white"/>
<path d="M198.541 13V34.4245H197.993L190.402 13H183.324V38H187.375V16.5392H187.883L195.659 38H202.592V13H198.541Z" fill="white"/>
<path d="M38.6811 13H25L37.5 25.5H62.5V38H50L62.5 50.5H75V13H38.6811Z" fill="#7846FF"/>
<path d="M36.323 38H50L37.5 25.5H12.5V13H25L12.5 0.5H0V38H36.323Z" fill="#7846FF"/>
</g>
<defs>
<clipPath id="clip0_938_749">
<rect width="202.592" height="50" fill="white" transform="translate(0 0.5)"/>
</clipPath>
</defs>
</svg>
